<svg xmlns="http://www.w3.org/2000/svg" width="745.977" height="893.697" viewBox="0 0 745.977 893.697">
  <g id="Group_33" data-name="Group 33" transform="translate(71.477 -4431.716)" opacity="0.78">
    <path id="Path_43" data-name="Path 43" d="M148.691,4508.342v2.536H149.8V4505.5A4.32,4.32,0,0,1,148.691,4508.342Z" fill="#f7f7f7"/>
    <path id="Path_44" data-name="Path 44" d="M145.371,5241.146V4606.959l-96.081,0v705.688q0,12.773,13.53,12.768h82.551v-84.267Z" fill="#f7f7f7"/>
    <path id="Path_45" data-name="Path 45" d="M149.8,4431.716h-1.108v1.544a4.333,4.333,0,0,1,1.108,2.84Z" fill="#f7f7f7"/>
    <path id="Path_46" data-name="Path 46" d="M595.335,4498.107q-79.172-66.369-213.142-66.391H250.307v79.159l135.949,0q89.309,0,140.74,48.519,51.411,48.532,51.423,131.5v376.63q0,81.713-52.1,130.226-52.11,48.537-140.063,48.517H250.307v79.154H382.193q133.976,0,213.142-66.386T674.5,5079.006V4678.123Q674.5,4564.5,595.335,4498.107Z" fill="#f7f7f7"/>
    <path id="Path_47" data-name="Path 47" d="M141.437,4431.716h-203.2c-5.361,0-9.709,1.962-9.709,4.384v69.4c0,2.422,4.348,4.385,9.709,4.385h203.2a16.052,16.052,0,0,0,7.254-1.547V4433.26A16.087,16.087,0,0,0,141.437,4431.716Z" fill="#f7f7f7"/>
    <path id="Path_48" data-name="Path 48" d="M149.8,4436.1a4.333,4.333,0,0,0-1.108-2.84v75.082a4.32,4.32,0,0,0,1.108-2.838Z" fill="#f7f7f7"/>
  </g>
</svg>
