<svg xmlns="http://www.w3.org/2000/svg" width="443.72" height="284.605" viewBox="0 0 443.72 284.605">
  <g id="Group_101" data-name="Group 101" transform="translate(-1485.78 -661.118)" opacity="0.2">
    <g id="Group_94" data-name="Group 94">
      <g id="Group_89" data-name="Group 89">
        <circle id="Ellipse_110" data-name="Ellipse 110" cx="5.583" cy="5.583" r="5.583" transform="translate(1485.78 661.118)" fill="#d1d2d4"/>
        <circle id="Ellipse_111" data-name="Ellipse 111" cx="5.583" cy="5.583" r="5.583" transform="translate(1548.128 661.118)" fill="#d1d2d4"/>
        <circle id="Ellipse_112" data-name="Ellipse 112" cx="5.583" cy="5.583" r="5.583" transform="translate(1610.476 661.118)" fill="#d1d2d4"/>
        <circle id="Ellipse_113" data-name="Ellipse 113" cx="5.583" cy="5.583" r="5.583" transform="translate(1672.824 661.118)" fill="#d1d2d4"/>
      </g>
      <g id="Group_90" data-name="Group 90">
        <circle id="Ellipse_114" data-name="Ellipse 114" cx="5.583" cy="5.583" r="5.583" transform="translate(1485.78 729.478)" fill="#d1d2d4"/>
        <circle id="Ellipse_115" data-name="Ellipse 115" cx="5.583" cy="5.583" r="5.583" transform="translate(1548.128 729.478)" fill="#d1d2d4"/>
        <circle id="Ellipse_116" data-name="Ellipse 116" cx="5.583" cy="5.583" r="5.583" transform="translate(1610.476 729.478)" fill="#d1d2d4"/>
        <circle id="Ellipse_117" data-name="Ellipse 117" cx="5.583" cy="5.583" r="5.583" transform="translate(1672.824 729.478)" fill="#d1d2d4"/>
      </g>
      <g id="Group_91" data-name="Group 91">
        <circle id="Ellipse_118" data-name="Ellipse 118" cx="5.583" cy="5.583" r="5.583" transform="translate(1485.78 797.837)" fill="#d1d2d4"/>
        <circle id="Ellipse_119" data-name="Ellipse 119" cx="5.583" cy="5.583" r="5.583" transform="translate(1548.128 797.837)" fill="#d1d2d4"/>
        <circle id="Ellipse_120" data-name="Ellipse 120" cx="5.583" cy="5.583" r="5.583" transform="translate(1610.476 797.837)" fill="#d1d2d4"/>
        <circle id="Ellipse_121" data-name="Ellipse 121" cx="5.583" cy="5.583" r="5.583" transform="translate(1672.824 797.837)" fill="#d1d2d4"/>
      </g>
      <g id="Group_92" data-name="Group 92">
        <circle id="Ellipse_122" data-name="Ellipse 122" cx="5.583" cy="5.583" r="5.583" transform="translate(1485.78 866.197)" fill="#d1d2d4"/>
        <circle id="Ellipse_123" data-name="Ellipse 123" cx="5.583" cy="5.583" r="5.583" transform="translate(1548.128 866.197)" fill="#d1d2d4"/>
        <circle id="Ellipse_124" data-name="Ellipse 124" cx="5.583" cy="5.583" r="5.583" transform="translate(1610.476 866.197)" fill="#d1d2d4"/>
        <circle id="Ellipse_125" data-name="Ellipse 125" cx="5.583" cy="5.583" r="5.583" transform="translate(1672.824 866.197)" fill="#d1d2d4"/>
      </g>
      <g id="Group_93" data-name="Group 93">
        <circle id="Ellipse_126" data-name="Ellipse 126" cx="5.583" cy="5.583" r="5.583" transform="translate(1485.78 934.556)" fill="#d1d2d4"/>
        <circle id="Ellipse_127" data-name="Ellipse 127" cx="5.583" cy="5.583" r="5.583" transform="translate(1548.128 934.556)" fill="#d1d2d4"/>
        <circle id="Ellipse_128" data-name="Ellipse 128" cx="5.583" cy="5.583" r="5.583" transform="translate(1610.476 934.556)" fill="#d1d2d4"/>
        <circle id="Ellipse_129" data-name="Ellipse 129" cx="5.583" cy="5.583" r="5.583" transform="translate(1672.824 934.556)" fill="#d1d2d4"/>
      </g>
    </g>
    <g id="Group_100" data-name="Group 100">
      <g id="Group_95" data-name="Group 95">
        <circle id="Ellipse_130" data-name="Ellipse 130" cx="5.583" cy="5.583" r="5.583" transform="translate(1731.289 661.118)" fill="#d1d2d4"/>
        <circle id="Ellipse_131" data-name="Ellipse 131" cx="5.583" cy="5.583" r="5.583" transform="translate(1793.637 661.118)" fill="#d1d2d4"/>
        <circle id="Ellipse_132" data-name="Ellipse 132" cx="5.583" cy="5.583" r="5.583" transform="translate(1855.985 661.118)" fill="#d1d2d4"/>
        <circle id="Ellipse_133" data-name="Ellipse 133" cx="5.583" cy="5.583" r="5.583" transform="translate(1918.333 661.118)" fill="#d1d2d4"/>
      </g>
      <g id="Group_96" data-name="Group 96">
        <circle id="Ellipse_134" data-name="Ellipse 134" cx="5.583" cy="5.583" r="5.583" transform="translate(1731.289 729.478)" fill="#d1d2d4"/>
        <circle id="Ellipse_135" data-name="Ellipse 135" cx="5.583" cy="5.583" r="5.583" transform="translate(1793.637 729.478)" fill="#d1d2d4"/>
        <circle id="Ellipse_136" data-name="Ellipse 136" cx="5.583" cy="5.583" r="5.583" transform="translate(1855.985 729.478)" fill="#d1d2d4"/>
        <circle id="Ellipse_137" data-name="Ellipse 137" cx="5.583" cy="5.583" r="5.583" transform="translate(1918.333 729.478)" fill="#d1d2d4"/>
      </g>
      <g id="Group_97" data-name="Group 97">
        <circle id="Ellipse_138" data-name="Ellipse 138" cx="5.583" cy="5.583" r="5.583" transform="translate(1731.289 797.837)" fill="#d1d2d4"/>
        <circle id="Ellipse_139" data-name="Ellipse 139" cx="5.583" cy="5.583" r="5.583" transform="translate(1793.637 797.837)" fill="#d1d2d4"/>
        <circle id="Ellipse_140" data-name="Ellipse 140" cx="5.583" cy="5.583" r="5.583" transform="translate(1855.985 797.837)" fill="#d1d2d4"/>
        <circle id="Ellipse_141" data-name="Ellipse 141" cx="5.583" cy="5.583" r="5.583" transform="translate(1918.333 797.837)" fill="#d1d2d4"/>
      </g>
      <g id="Group_98" data-name="Group 98">
        <circle id="Ellipse_142" data-name="Ellipse 142" cx="5.583" cy="5.583" r="5.583" transform="translate(1731.289 866.197)" fill="#d1d2d4"/>
        <circle id="Ellipse_143" data-name="Ellipse 143" cx="5.583" cy="5.583" r="5.583" transform="translate(1793.637 866.197)" fill="#d1d2d4"/>
        <circle id="Ellipse_144" data-name="Ellipse 144" cx="5.583" cy="5.583" r="5.583" transform="translate(1855.985 866.197)" fill="#d1d2d4"/>
        <circle id="Ellipse_145" data-name="Ellipse 145" cx="5.583" cy="5.583" r="5.583" transform="translate(1918.333 866.197)" fill="#d1d2d4"/>
      </g>
      <g id="Group_99" data-name="Group 99">
        <circle id="Ellipse_146" data-name="Ellipse 146" cx="5.583" cy="5.583" r="5.583" transform="translate(1731.289 934.556)" fill="#d1d2d4"/>
        <circle id="Ellipse_147" data-name="Ellipse 147" cx="5.583" cy="5.583" r="5.583" transform="translate(1793.637 934.556)" fill="#d1d2d4"/>
        <circle id="Ellipse_148" data-name="Ellipse 148" cx="5.583" cy="5.583" r="5.583" transform="translate(1855.985 934.556)" fill="#d1d2d4"/>
        <circle id="Ellipse_149" data-name="Ellipse 149" cx="5.583" cy="5.583" r="5.583" transform="translate(1918.333 934.556)" fill="#d1d2d4"/>
      </g>
    </g>
  </g>
</svg>
