<?xml version="1.0" encoding="utf-8"?>
<!-- Generator: Adobe Illustrator 25.3.1, SVG Export Plug-In . SVG Version: 6.00 Build 0)  -->
<svg version="1.1" xmlns="http://www.w3.org/2000/svg" xmlns:xlink="http://www.w3.org/1999/xlink" x="0px" y="0px"
	 viewBox="0 0 256.7 58.9" style="enable-background:new 0 0 256.7 58.9;" xml:space="preserve">
<g id="Layer_4">
</g>
<g id="Layer_63">
</g>
<g id="Layer_3">
</g>
<g id="Layer_5">
</g>
<g id="Layer_7">
</g>
<g id="Layer_6">
</g>
<g id="Layer_8">
</g>
<g id="guides">
	<g>
		<g>
			<path d="M85.4,19.5c-1.3-0.6-2.7-0.9-4.4-0.9h-8.5c-0.1,0-0.2,0-0.3,0.1c-0.1,0.1-0.1,0.2-0.1,0.3v17.1h4.1V22.3
				c0-0.1,0.1-0.2,0.2-0.2h4.9c1.3,0,2.3,0.4,3,1.2c0.7,0.8,1.1,1.8,1.1,3.2v8.8c0,1.3-0.4,2.3-1.1,3.1c-0.7,0.8-1.7,1.2-3,1.2h-3.4
				h-1.5h-4.2v3.1c0,0.1,0,0.2,0.1,0.3c0.1,0.1,0.2,0.1,0.3,0.1H81c1.7,0,3.1-0.3,4.4-0.9c1.3-0.6,2.2-1.4,2.9-2.5
				c0.7-1.1,1-2.3,1-3.8V25.8c0-1.4-0.3-2.7-1-3.8C87.6,21,86.6,20.1,85.4,19.5z"/>
			<path d="M99.4,18.7h-3.2c-0.1,0-0.2,0-0.3,0.1c-0.1,0.1-0.1,0.2-0.1,0.3v23.6c0,0.1,0,0.2,0.1,0.3c0.1,0.1,0.2,0.1,0.3,0.1h3.2
				c0.1,0,0.2,0,0.3-0.1c0.1-0.1,0.1-0.2,0.1-0.3V19.1c0-0.1,0-0.2-0.1-0.3C99.6,18.7,99.5,18.7,99.4,18.7z"/>
			<path d="M118.7,38.8c-0.8,0.7-1.9,1.1-3.3,1.1c-1.4,0-2.6-0.4-3.5-1.3c-0.9-0.9-1.4-2-1.4-3.4v-8.7c0-1.4,0.4-2.5,1.3-3.4
				c0.9-0.9,2-1.3,3.4-1.3c1.4,0,2.6,0.4,3.4,1.2c0.9,0.8,1.3,1.9,1.3,3.1v0.2c0,0.1,0,0.2,0.1,0.3c0.1,0.1,0.2,0.1,0.3,0.1h3.2
				c0.1,0,0.2,0,0.3-0.1c0.1-0.1,0.1-0.2,0.1-0.3v-0.3c0-1.5-0.4-2.8-1.1-3.9c-0.7-1.2-1.7-2.1-3.1-2.8c-1.3-0.7-2.8-1-4.6-1
				c-1.7,0-3.3,0.3-4.6,1c-1.3,0.7-2.4,1.7-3.1,2.9c-0.7,1.2-1.1,2.7-1.1,4.4v8.5c0,1.6,0.4,3.1,1.1,4.3c0.7,1.3,1.7,2.2,3.1,2.9
				c1.3,0.7,2.9,1,4.6,1c2.7,0,4.8-0.7,6.3-2.2c1.2-1.1,1.9-2.5,2.2-4.3h-4C119.6,37.7,119.2,38.3,118.7,38.8z"/>
			<path d="M123.9,30.5c0-0.1,0-0.2-0.1-0.3c-0.1-0.1-0.2-0.1-0.3-0.1h-8.1c-0.1,0-0.2,0-0.3,0.1c-0.1,0.1-0.1,0.2-0.1,0.3V33
				c0,0.1,0,0.2,0.1,0.3c0.1,0.1,0.2,0.1,0.3,0.1h4.3c0,0,0,0,0,0h4.2V30.5z"/>
			<path d="M134.2,18.7H131c-0.1,0-0.2,0-0.3,0.1c-0.1,0.1-0.1,0.2-0.1,0.3v23.6c0,0.1,0,0.2,0.1,0.3c0.1,0.1,0.2,0.1,0.3,0.1h3.2
				c0.1,0,0.2,0,0.3-0.1c0.1-0.1,0.1-0.2,0.1-0.3V19.1c0-0.1,0-0.2-0.1-0.3C134.4,18.7,134.3,18.7,134.2,18.7z"/>
			<path d="M155.1,19.5c-1.3-0.6-2.7-0.9-4.4-0.9h-8.5c-0.1,0-0.2,0-0.3,0.1c-0.1,0.1-0.1,0.2-0.1,0.3v3.1h4.2h1.7h3.2
				c1.3,0,2.3,0.4,3,1.2c0.7,0.8,1.1,1.8,1.1,3.2v8.8c0,1.3-0.4,2.3-1.1,3.1c-0.7,0.8-1.7,1.2-3,1.2H146c-0.1,0-0.2-0.1-0.2-0.2
				V25.6h-4.1v17.1c0,0.1,0,0.2,0.1,0.3c0.1,0.1,0.2,0.1,0.3,0.1h8.5c1.7,0,3.1-0.3,4.4-0.9c1.3-0.6,2.2-1.4,2.9-2.5
				c0.7-1.1,1-2.3,1-3.8V25.8c0-1.4-0.3-2.7-1-3.8C157.3,21,156.4,20.1,155.1,19.5z"/>
			<path d="M181.6,18.7h-15.7c-0.1,0-0.2,0-0.3,0.1c-0.1,0.1-0.1,0.2-0.1,0.3v17.1h4.1v-3.5c0-0.1,0.1-0.2,0.2-0.2h8
				c0.1,0,0.2,0,0.3-0.1c0.1-0.1,0.1-0.2,0.1-0.3v-2.7c0-0.1,0-0.2-0.1-0.3c-0.1-0.1-0.2-0.1-0.3-0.1h-8c-0.1,0-0.2-0.1-0.2-0.2
				v-6.5c0-0.1,0.1-0.2,0.2-0.2h11.9c0.1,0,0.2,0,0.3-0.1c0.1-0.1,0.1-0.2,0.1-0.3v-2.7c0-0.1,0-0.2-0.1-0.3
				C181.8,18.7,181.7,18.7,181.6,18.7z"/>
			<path d="M165.5,39.6v3.1c0,0.1,0,0.2,0.1,0.3c0.1,0.1,0.2,0.1,0.3,0.1h15.7c0.1,0,0.2,0,0.3-0.1c0.1-0.1,0.1-0.2,0.1-0.3v-2.7
				c0-0.1,0-0.2-0.1-0.3c-0.1-0.1-0.2-0.1-0.3-0.1h-8.5h-3.4H165.5z"/>
			<path d="M206.1,18.7h-3.2c-0.1,0-0.2,0-0.3,0.1c-0.1,0.1-0.1,0.2-0.1,0.3l0,16.3c0,0.1,0,0.1-0.1,0.2c0,0-0.1,0-0.1-0.1l-10-16.5
				c-0.1-0.2-0.3-0.3-0.5-0.3h-3.1c-0.1,0-0.2,0-0.3,0.1c-0.1,0.1-0.1,0.2-0.1,0.3v23.6c0,0.1,0,0.2,0.1,0.3
				c0.1,0.1,0.2,0.1,0.3,0.1h3.2c0.1,0,0.2,0,0.3-0.1c0.1-0.1,0.1-0.2,0.1-0.3l-0.1-16.3c0-0.1,0-0.1,0.1-0.2c0,0,0.1,0,0.1,0.1
				l10.1,16.5c0.1,0.2,0.3,0.3,0.5,0.3h3.1c0.1,0,0.2,0,0.3-0.1c0.1-0.1,0.1-0.2,0.1-0.3V19.1c0-0.1,0-0.2-0.1-0.3
				C206.3,18.7,206.2,18.7,206.1,18.7z"/>
			<path d="M218.5,23.1c0.9-0.8,2-1.3,3.4-1.3c1.4,0,2.6,0.4,3.4,1.3c0.9,0.8,1.3,1.9,1.3,3.3c0,0.3,0.1,0.4,0.4,0.4l3.2-0.2
				c0.1,0,0.2,0,0.3-0.1c0.1-0.1,0.1-0.2,0.1-0.3c0-1.6-0.4-2.9-1.1-4.1c-0.7-1.2-1.7-2.1-3.1-2.8c-1.3-0.7-2.9-1-4.6-1
				c-1.7,0-3.3,0.3-4.6,1c-1.3,0.7-2.4,1.6-3.1,2.9c-0.7,1.2-1.1,2.7-1.1,4.3v8.6c0,1.6,0.4,3.1,1.1,4.3c0.7,1.2,1.7,2.2,3.1,2.9
				c1.3,0.7,2.9,1,4.6,1c1.7,0,3.3-0.3,4.6-1c1.3-0.7,2.4-1.6,3.1-2.8c0.7-1.2,1.1-2.6,1.1-4.2c0-0.1,0-0.2-0.1-0.2
				c-0.1-0.1-0.2-0.1-0.3-0.1L227,35c-0.3,0-0.4,0.1-0.4,0.4c0,1.4-0.4,2.5-1.3,3.3c-0.9,0.8-2,1.2-3.4,1.2c-1.4,0-2.6-0.4-3.4-1.3
				c-0.9-0.8-1.3-1.9-1.3-3.3v-8.9C217.2,25.1,217.6,24,218.5,23.1z"/>
			<path d="M237.1,25.6v17.1c0,0.1,0,0.2,0.1,0.3c0.1,0.1,0.2,0.1,0.3,0.1h15.7c0.1,0,0.2,0,0.3-0.1c0.1-0.1,0.1-0.2,0.1-0.3v-2.7
				c0-0.1,0-0.2-0.1-0.3c-0.1-0.1-0.2-0.1-0.3-0.1h-11.9c-0.1,0-0.2-0.1-0.2-0.2v-6.7c0-0.1,0.1-0.2,0.2-0.2h8c0.1,0,0.2,0,0.3-0.1
				c0.1-0.1,0.1-0.2,0.1-0.3v-2.7c0-0.1,0-0.2-0.1-0.3c-0.1-0.1-0.2-0.1-0.3-0.1h-8c-0.1,0-0.2-0.1-0.2-0.2v-3.3H237.1z"/>
			<path d="M242.8,22.2h10.5c0.1,0,0.2,0,0.3-0.1c0.1-0.1,0.1-0.2,0.1-0.3v-2.7c0-0.1,0-0.2-0.1-0.3c-0.1-0.1-0.2-0.1-0.3-0.1h-15.7
				c-0.1,0-0.2,0-0.3,0.1c-0.1,0.1-0.1,0.2-0.1,0.3v3.1h4.2H242.8z"/>
		</g>
		<g>
			<path d="M15.5,50.2v-3.6V13.9l-5.5,0v40.4c0,0.5,0.3,0.7,0.8,0.7h4.7V50.2C15.5,50.2,15.5,50.2,15.5,50.2z"/>
			<path d="M41.2,7.7c-3-2.5-7.1-3.8-12.2-3.8h-7.6v4.5c3.7,0,7.8,0,7.8,0c3.4,0,6.1,0.9,8.1,2.8c2,1.9,2.9,4.4,2.9,7.5v21.6
				c0,3.1-1,5.6-3,7.5c-2,1.9-4.7,2.8-8,2.8h-7.8v4.5H29c5.1,0,9.2-1.3,12.2-3.8c3-2.5,4.5-6,4.5-10.3V18
				C45.8,13.7,44.3,10.2,41.2,7.7z"/>
			<path d="M15.2,3.9H3.6C3.3,3.9,3,4,3,4.1v4c0,0.1,0.2,0.3,0.6,0.3h11.6c0.2,0,0.3,0,0.4-0.1V4C15.6,3.9,15.4,3.9,15.2,3.9z"/>
		</g>
	</g>
</g>
</svg>
