<svg xmlns="http://www.w3.org/2000/svg" width="185.478" height="34.102" viewBox="0 0 185.478 34.102">
  <g id="Group_35" data-name="Group 35" transform="translate(-401.645 -73.277)">
    <path id="Path_55" data-name="Path 55" d="M485.041,97.386"/>
    <path id="Path_56" data-name="Path 56" d="M420.8,83.011a6.171,6.171,0,0,0-4.1-1.275h-6.137c-.173,0-.26.082-.26.245V83.2a.058.058,0,0,0,.058.058h6.417a3.779,3.779,0,0,1,2.7.932,3.309,3.309,0,0,1,.988,2.526v7.237a3.256,3.256,0,0,1-1,2.5,3.8,3.8,0,0,1-2.691.932h-4.524c-.07,0-.1-.033-.1-.1V85.1H410.3V98.661c0,.164.087.246.26.246H416.7a6.166,6.166,0,0,0,4.1-1.276,4.277,4.277,0,0,0,1.521-3.459v-7.7A4.28,4.28,0,0,0,420.8,83.011Z"/>
    <path id="Path_57" data-name="Path 57" d="M433.679,81.736h-1.326c-.173,0-.26.082-.26.245v16.68c0,.164.087.246.26.246h1.326c.173,0,.26-.082.26-.246V81.981C433.939,81.818,433.852,81.736,433.679,81.736Z"/>
    <path id="Path_58" data-name="Path 58" d="M453.271,82.2a7.319,7.319,0,0,0-3.185-.662,7.2,7.2,0,0,0-3.2.674,5.132,5.132,0,0,0-2.146,1.9,5.212,5.212,0,0,0-.767,2.821v6.77a5.207,5.207,0,0,0,.767,2.821,5.118,5.118,0,0,0,2.146,1.9,7.182,7.182,0,0,0,3.2.675,6.42,6.42,0,0,0,4.433-1.472,5.2,5.2,0,0,0,1.651-4.1V90.37c0-.163-.087-.245-.26-.245H450.4c-.174,0-.26.082-.26.245V91.4c0,.163.086.245.26.245h3.822c.069,0,.1.033.1.1v2.232a3.3,3.3,0,0,1-1.131,2.625,4.462,4.462,0,0,1-3.029.981,4.577,4.577,0,0,1-3.146-1.055,3.516,3.516,0,0,1-1.2-2.772V86.887a3.556,3.556,0,0,1,1.171-2.772,5.091,5.091,0,0,1,6.175-.024,3.413,3.413,0,0,1,1.157,2.673v.295c0,.163.086.245.26.245h1.326c.173,0,.26-.082.26-.245V86.74a4.918,4.918,0,0,0-.754-2.686A5.024,5.024,0,0,0,453.271,82.2Z"/>
    <path id="Path_59" data-name="Path 59" d="M480.506,83.355c0-.065.035-.1.1-.1h4.525a3.779,3.779,0,0,1,2.7.932,3.309,3.309,0,0,1,.988,2.526v7.237a3.256,3.256,0,0,1-1,2.5,3.8,3.8,0,0,1-2.691.932h-6.346a.128.128,0,0,0-.129.128v1.147c0,.164.087.246.26.246h6.137a6.166,6.166,0,0,0,4.1-1.276,4.277,4.277,0,0,0,1.521-3.459v-7.7a4.28,4.28,0,0,0-1.521-3.459,6.171,6.171,0,0,0-4.1-1.275H478.92c-.173,0-.26.082-.26.245V95.412a.129.129,0,0,0,.129.128h1.589a.128.128,0,0,0,.128-.128Z"/>
    <path id="Path_60" data-name="Path 60" d="M511.968,83.257c.173,0,.26-.082.26-.246v-1.03c0-.163-.087-.245-.26-.245H500.709c-.173,0-.26.082-.26.245v1.141a.136.136,0,0,0,.135.135Z"/>
    <path id="Path_61" data-name="Path 61" d="M500.449,98.661c0,.164.087.246.26.246h11.259c.173,0,.26-.082.26-.246v-1.03c0-.163-.087-.245-.26-.245H502.4c-.069,0-.1-.033-.1-.1V91.131c0-.065.035-.1.1-.1h6.708c.174,0,.26-.082.26-.246v-1.03c0-.163-.086-.245-.26-.245H502.4c-.069,0-.1-.033-.1-.1v-4.2a.114.114,0,0,0-.113-.113h-1.619a.114.114,0,0,0-.114.113Z"/>
    <path id="Path_62" data-name="Path 62" d="M522.16,98.907h1.326c.173,0,.26-.082.26-.246l-.026-13.516c0-.049.017-.077.052-.085s.061.012.078.061l8.866,13.614a.382.382,0,0,0,.312.172h1.3c.174,0,.26-.082.26-.246V81.981c0-.163-.086-.245-.26-.245H533c-.173,0-.26.082-.26.245l.026,13.516c0,.049-.017.078-.052.086s-.061-.012-.078-.061l-8.866-13.615a.384.384,0,0,0-.312-.171h-1.3c-.174,0-.26.082-.26.245v16.68C521.9,98.825,521.986,98.907,522.16,98.907Z"/>
    <path id="Path_63" data-name="Path 63" d="M547.537,98.453a7.182,7.182,0,0,0,3.2.674,7.3,7.3,0,0,0,3.2-.662,5.062,5.062,0,0,0,2.145-1.876,5.152,5.152,0,0,0,.767-2.809c0-.147-.087-.221-.26-.221l-1.326-.073c-.173,0-.26.073-.26.22v.049a3.545,3.545,0,0,1-1.17,2.785,5.089,5.089,0,0,1-6.188-.013,3.554,3.554,0,0,1-1.17-2.772V86.887a3.555,3.555,0,0,1,1.17-2.772,5.087,5.087,0,0,1,6.188-.012A3.545,3.545,0,0,1,555,86.887v.074c0,.147.087.22.26.22l1.326-.073a.26.26,0,0,0,.26-.27,4.954,4.954,0,0,0-2.912-4.636,7.3,7.3,0,0,0-3.2-.662,7.2,7.2,0,0,0-3.2.674,5.123,5.123,0,0,0-2.145,1.9,5.2,5.2,0,0,0-.767,2.821v6.746a5.312,5.312,0,0,0,.767,2.858A5.089,5.089,0,0,0,547.537,98.453Z"/>
    <path id="Path_64" data-name="Path 64" d="M566.7,98.661c0,.164.087.246.26.246h11.259c.173,0,.26-.082.26-.246v-1.03c0-.163-.087-.245-.26-.245l-11.405-.005a.114.114,0,0,0-.114.114Z"/>
    <path id="Path_65" data-name="Path 65" d="M568.546,91.131c0-.065.034-.1.1-.1h6.708c.173,0,.26-.082.26-.246v-1.03c0-.163-.087-.245-.26-.245H568.65c-.07,0-.1-.033-.1-.1V83.355c0-.065.034-.1.1-.1h9.568c.173,0,.26-.082.26-.246v-1.03c0-.163-.087-.245-.26-.245H566.959c-.173,0-.26.082-.26.245V95.364a.172.172,0,0,0,.172.171h1.5a.172.172,0,0,0,.172-.171Z"/>
    <path id="Path_66" data-name="Path 66" d="M466.382,78.637a.079.079,0,0,0,.08.08h1.411a.08.08,0,0,0,.08-.08v-5.28a.08.08,0,0,0-.08-.08H401.725a.08.08,0,0,0-.08.08v9.106a.079.079,0,0,0,.08.08h1.411a.08.08,0,0,0,.08-.08V74.929a.08.08,0,0,1,.08-.08H466.3a.08.08,0,0,1,.08.08Z"/>
    <path id="Path_67" data-name="Path 67" d="M586.9,97.386h-1.12a.226.226,0,0,0-.226.226v7.97a.226.226,0,0,1-.225.226H468.179a.226.226,0,0,1-.226-.226V81.961a.225.225,0,0,0-.225-.225h-1.121a.225.225,0,0,0-.225.225v25.193a.225.225,0,0,0,.225.225H586.9a.226.226,0,0,0,.226-.225V97.612A.226.226,0,0,0,586.9,97.386Z"/>
  </g>
</svg>
