<svg xmlns="http://www.w3.org/2000/svg" width="45.168" height="54.112" viewBox="0 0 45.168 54.112">
	<style>
		path { fill: #000000; }
	    @media (prefers-color-scheme: dark) {
	      path { fill: #ffffff; }
	    }
	</style>
  <g id="Group_36" data-name="Group 36" transform="translate(-332.236 -54.475)">
    <path id="Path_68" data-name="Path 68" d="M345.567,59.114v.154h.067v-.326A.261.261,0,0,1,345.567,59.114Z"/>
    <path id="Path_69" data-name="Path 69" d="M345.366,103.484v-38.4h-5.818v42.729q0,.772.82.773h5v-5.1Z"/>
    <path id="Path_70" data-name="Path 70" d="M345.634,54.475h-.067v.093a.265.265,0,0,1,.067.172Z"/>
    <path id="Path_71" data-name="Path 71" d="M372.611,58.495q-4.794-4.018-12.906-4.02H351.72v4.793h8.231q5.408,0,8.522,2.938a10.426,10.426,0,0,1,3.113,7.962v22.8a10.256,10.256,0,0,1-3.154,7.885,11.945,11.945,0,0,1-8.481,2.938H351.72v4.793H359.7q8.112,0,12.906-4.02a13.481,13.481,0,0,0,4.793-10.9V69.394A13.482,13.482,0,0,0,372.611,58.495Z"/>
    <path id="Path_72" data-name="Path 72" d="M345.128,54.475h-12.3c-.325,0-.588.119-.588.265v4.2c0,.147.263.266.588.266h12.3a.975.975,0,0,0,.439-.094V54.568A.976.976,0,0,0,345.128,54.475Z"/>
    <path id="Path_73" data-name="Path 73" d="M345.634,54.74a.265.265,0,0,0-.067-.172v4.546a.261.261,0,0,0,.067-.172Z"/>
  </g>
</svg>
